<svg width="267.601" height="76.301" viewBox="0 0 267.601 76.301" xmlns="http://www.w3.org/2000/svg"><g id="svgGroup" stroke-linecap="round" fill-rule="evenodd" font-size="9pt" stroke="#000" stroke-width="0.25mm" fill="#000" style="stroke:#000;stroke-width:0.25mm;fill:#000"><path d="M 152.6 70.3 L 152.6 75 L 137.6 75 L 137.6 0 L 152.6 0 L 152.6 29.6 Q 154.95 26.95 158.1 25.275 A 14.388 14.388 0 0 1 163.628 23.669 A 17.562 17.562 0 0 1 165.2 23.6 Q 172.5 23.6 178.5 27.15 Q 184.5 30.7 188.05 36.675 Q 191.6 42.65 191.6 49.9 Q 191.6 55.35 189.55 60.15 Q 187.5 64.95 183.875 68.575 Q 180.25 72.2 175.475 74.25 A 25.682 25.682 0 0 1 165.543 76.298 A 29.331 29.331 0 0 1 165.2 76.3 A 15.748 15.748 0 0 1 160.819 75.709 A 13.694 13.694 0 0 1 158.1 74.6 Q 154.95 72.9 152.6 70.3 Z M 127.6 25 L 127.6 40 L 106.6 60 L 127.6 60 L 127.6 75 L 84.9 75 L 84.9 60 L 105.9 40 L 84.9 40 L 84.9 25 L 127.6 25 Z M 62.6 29.8 L 61.9 25 L 76.9 25 L 76.9 75 L 61.85 75 L 61.15 70.5 Q 59.3 73.1 56.475 74.7 Q 53.65 76.3 49.9 76.3 A 26.3 26.3 0 0 1 40.037 74.454 A 25.368 25.368 0 0 1 39.425 74.2 Q 34.55 72.1 30.85 68.375 Q 27.15 64.65 25.075 59.775 A 26.38 26.38 0 0 1 23.002 49.649 A 30.045 30.045 0 0 1 23 49.3 A 25.924 25.924 0 0 1 24.388 40.77 A 24.498 24.498 0 0 1 24.95 39.3 Q 26.9 34.65 30.425 31.125 Q 33.95 27.6 38.575 25.6 Q 43.2 23.6 48.5 23.6 A 18.035 18.035 0 0 1 53.691 24.328 A 16.094 16.094 0 0 1 56.325 25.375 Q 59.85 27.15 62.6 29.8 Z M 15 75 L 0 75 L 0 0 L 15 0 L 15 75 Z M 221.6 76.3 Q 214.7 76.3 209.025 72.75 Q 203.35 69.2 199.975 63.225 A 26.326 26.326 0 0 1 196.603 50.452 A 30.894 30.894 0 0 1 196.6 50 A 27.383 27.383 0 0 1 197.887 41.541 A 25.56 25.56 0 0 1 198.55 39.725 Q 200.5 34.95 203.925 31.325 Q 207.35 27.7 211.9 25.65 Q 216.45 23.6 221.6 23.6 Q 228.5 23.6 234.175 27.15 Q 239.85 30.7 243.225 36.7 A 26.545 26.545 0 0 1 246.596 49.488 A 31.285 31.285 0 0 1 246.6 50 A 26.941 26.941 0 0 1 245.212 58.699 A 25.413 25.413 0 0 1 244.65 60.2 Q 242.7 64.95 239.275 68.575 Q 235.85 72.2 231.325 74.25 Q 226.8 76.3 221.6 76.3 Z M 49.5 61.9 Q 52.6 61.9 55.15 60.3 Q 57.7 58.7 59.2 56 A 12.041 12.041 0 0 0 60.693 50.436 A 14.264 14.264 0 0 0 60.7 50 A 12.555 12.555 0 0 0 59.991 45.746 A 11.677 11.677 0 0 0 59.2 44 Q 57.7 41.3 55.15 39.7 Q 52.6 38.1 49.5 38.1 Q 46.4 38.1 43.875 39.7 Q 41.35 41.3 39.875 44 A 12.158 12.158 0 0 0 38.413 49.387 A 14.403 14.403 0 0 0 38.4 50 A 12.555 12.555 0 0 0 39.109 54.254 A 11.677 11.677 0 0 0 39.9 56 Q 41.4 58.7 43.925 60.3 Q 46.45 61.9 49.5 61.9 Z M 165 61.8 Q 168.1 61.8 170.65 60.2 Q 173.2 58.6 174.7 55.9 A 12.041 12.041 0 0 0 176.193 50.336 A 14.264 14.264 0 0 0 176.2 49.9 A 12.167 12.167 0 0 0 175.132 44.807 A 11.896 11.896 0 0 0 174.7 43.95 Q 173.2 41.25 170.65 39.625 Q 168.1 38 165 38 Q 161.95 38 159.425 39.625 Q 156.9 41.25 155.4 43.95 A 12.042 12.042 0 0 0 153.9 49.887 A 14.383 14.383 0 0 0 153.9 49.9 A 12.555 12.555 0 0 0 154.609 54.154 A 11.677 11.677 0 0 0 155.4 55.9 Q 156.9 58.6 159.425 60.2 Q 161.95 61.8 165 61.8 Z M 221.6 61.3 Q 224.45 61.3 226.725 59.75 Q 229 58.2 230.3 55.625 A 12.26 12.26 0 0 0 231.599 50.19 A 14.208 14.208 0 0 0 231.6 50 A 12.501 12.501 0 0 0 230.92 45.842 A 11.585 11.585 0 0 0 230.225 44.25 A 11.521 11.521 0 0 0 227.925 41.198 A 10.608 10.608 0 0 0 226.575 40.125 Q 224.3 38.6 221.6 38.6 Q 218.8 38.6 216.525 40.175 Q 214.25 41.75 212.925 44.35 Q 211.6 46.95 211.6 50 Q 211.6 53.2 212.975 55.75 A 11.265 11.265 0 0 0 215.528 58.971 A 10.641 10.641 0 0 0 216.625 59.8 Q 218.9 61.3 221.6 61.3 Z M 256.885 75.621 A 7.513 7.513 0 0 0 260.1 76.3 A 8.804 8.804 0 0 0 260.148 76.3 A 7.261 7.261 0 0 0 265.4 74.125 Q 267.6 71.95 267.6 68.8 A 8.676 8.676 0 0 0 267.599 68.703 A 7.216 7.216 0 0 0 265.4 63.5 A 8.772 8.772 0 0 0 265.331 63.432 A 7.215 7.215 0 0 0 260.1 61.3 Q 256.95 61.3 254.775 63.5 A 8.757 8.757 0 0 0 254.741 63.534 A 7.262 7.262 0 0 0 252.6 68.8 Q 252.6 71.95 254.775 74.125 A 7.399 7.399 0 0 0 256.885 75.621 Z" vector-effect="non-scaling-stroke"/></g></svg>