<svg width="40.001" height="76.301" viewBox="0 0 40.001 76.301" xmlns="http://www.w3.org/2000/svg"><g id="svgGroup" stroke-linecap="round" fill-rule="evenodd" font-size="9pt" stroke="#000" stroke-width="0.25mm" fill="#000" style="stroke:#000;stroke-width:0.25mm;fill:#000"><path d="M 15 75 L 0 75 L 0 0 L 15 0 L 15 75 Z M 29.285 75.621 A 7.513 7.513 0 0 0 32.5 76.3 A 8.804 8.804 0 0 0 32.548 76.3 A 7.261 7.261 0 0 0 37.8 74.125 Q 40 71.95 40 68.8 A 8.676 8.676 0 0 0 39.999 68.703 A 7.216 7.216 0 0 0 37.8 63.5 A 8.772 8.772 0 0 0 37.731 63.432 A 7.215 7.215 0 0 0 32.5 61.3 Q 29.35 61.3 27.175 63.5 A 8.757 8.757 0 0 0 27.141 63.534 A 7.262 7.262 0 0 0 25 68.8 Q 25 71.95 27.175 74.125 A 7.399 7.399 0 0 0 29.285 75.621 Z" vector-effect="non-scaling-stroke"/></g></svg>